G04 #@! TF.FileFunction,Legend,Bot*
%FSLAX46Y46*%
G04 Gerber Fmt 4.6, Leading zero omitted, Abs format (unit mm)*
G04 Created by KiCad (PCBNEW 4.0.7) date 09/04/18 16:32:22*
%MOMM*%
%LPD*%
G01*
G04 APERTURE LIST*
%ADD10C,0.100000*%
%ADD11C,0.300000*%
%ADD12C,0.120000*%
%ADD13C,0.381000*%
%ADD14C,0.150000*%
%ADD15C,0.203200*%
G04 APERTURE END LIST*
D10*
D11*
X254312497Y-147744643D02*
X253169640Y-147744643D01*
X253741069Y-148316071D02*
X253741069Y-147173214D01*
X251669640Y-148316071D02*
X252526783Y-148316071D01*
X252098211Y-148316071D02*
X252098211Y-146816071D01*
X252241068Y-147030357D01*
X252383926Y-147173214D01*
X252526783Y-147244643D01*
X249955355Y-147887500D02*
X249241069Y-147887500D01*
X250098212Y-148316071D02*
X249598212Y-146816071D01*
X249098212Y-148316071D01*
X246812498Y-146816071D02*
X247098212Y-146816071D01*
X247241069Y-146887500D01*
X247312498Y-146958929D01*
X247455355Y-147173214D01*
X247526784Y-147458929D01*
X247526784Y-148030357D01*
X247455355Y-148173214D01*
X247383927Y-148244643D01*
X247241069Y-148316071D01*
X246955355Y-148316071D01*
X246812498Y-148244643D01*
X246741069Y-148173214D01*
X246669641Y-148030357D01*
X246669641Y-147673214D01*
X246741069Y-147530357D01*
X246812498Y-147458929D01*
X246955355Y-147387500D01*
X247241069Y-147387500D01*
X247383927Y-147458929D01*
X247455355Y-147530357D01*
X247526784Y-147673214D01*
X245741070Y-146816071D02*
X245598213Y-146816071D01*
X245455356Y-146887500D01*
X245383927Y-146958929D01*
X245312498Y-147101786D01*
X245241070Y-147387500D01*
X245241070Y-147744643D01*
X245312498Y-148030357D01*
X245383927Y-148173214D01*
X245455356Y-148244643D01*
X245598213Y-148316071D01*
X245741070Y-148316071D01*
X245883927Y-148244643D01*
X245955356Y-148173214D01*
X246026784Y-148030357D01*
X246098213Y-147744643D01*
X246098213Y-147387500D01*
X246026784Y-147101786D01*
X245955356Y-146958929D01*
X245883927Y-146887500D01*
X245741070Y-146816071D01*
X243526785Y-148244643D02*
X243383928Y-148316071D01*
X243098213Y-148316071D01*
X242955356Y-148244643D01*
X242883928Y-148101786D01*
X242883928Y-148030357D01*
X242955356Y-147887500D01*
X243098213Y-147816071D01*
X243312499Y-147816071D01*
X243455356Y-147744643D01*
X243526785Y-147601786D01*
X243526785Y-147530357D01*
X243455356Y-147387500D01*
X243312499Y-147316071D01*
X243098213Y-147316071D01*
X242955356Y-147387500D01*
X242026784Y-148316071D02*
X242169642Y-148244643D01*
X242241070Y-148173214D01*
X242312499Y-148030357D01*
X242312499Y-147601786D01*
X242241070Y-147458929D01*
X242169642Y-147387500D01*
X242026784Y-147316071D01*
X241812499Y-147316071D01*
X241669642Y-147387500D01*
X241598213Y-147458929D01*
X241526784Y-147601786D01*
X241526784Y-148030357D01*
X241598213Y-148173214D01*
X241669642Y-148244643D01*
X241812499Y-148316071D01*
X242026784Y-148316071D01*
X240883927Y-148316071D02*
X240883927Y-147316071D01*
X240883927Y-147458929D02*
X240812499Y-147387500D01*
X240669641Y-147316071D01*
X240455356Y-147316071D01*
X240312499Y-147387500D01*
X240241070Y-147530357D01*
X240241070Y-148316071D01*
X240241070Y-147530357D02*
X240169641Y-147387500D01*
X240026784Y-147316071D01*
X239812499Y-147316071D01*
X239669641Y-147387500D01*
X239598213Y-147530357D01*
X239598213Y-148316071D01*
X238312499Y-148244643D02*
X238455356Y-148316071D01*
X238741070Y-148316071D01*
X238883927Y-148244643D01*
X238955356Y-148101786D01*
X238955356Y-147530357D01*
X238883927Y-147387500D01*
X238741070Y-147316071D01*
X238455356Y-147316071D01*
X238312499Y-147387500D01*
X238241070Y-147530357D01*
X238241070Y-147673214D01*
X238955356Y-147816071D01*
X237812499Y-147316071D02*
X237241070Y-147316071D01*
X237598213Y-146816071D02*
X237598213Y-148101786D01*
X237526785Y-148244643D01*
X237383927Y-148316071D01*
X237241070Y-148316071D01*
X236741070Y-148316071D02*
X236741070Y-146816071D01*
X236098213Y-148316071D02*
X236098213Y-147530357D01*
X236169642Y-147387500D01*
X236312499Y-147316071D01*
X236526784Y-147316071D01*
X236669642Y-147387500D01*
X236741070Y-147458929D01*
X235383927Y-148316071D02*
X235383927Y-147316071D01*
X235383927Y-146816071D02*
X235455356Y-146887500D01*
X235383927Y-146958929D01*
X235312499Y-146887500D01*
X235383927Y-146816071D01*
X235383927Y-146958929D01*
X234669641Y-147316071D02*
X234669641Y-148316071D01*
X234669641Y-147458929D02*
X234598213Y-147387500D01*
X234455355Y-147316071D01*
X234241070Y-147316071D01*
X234098213Y-147387500D01*
X234026784Y-147530357D01*
X234026784Y-148316071D01*
X232669641Y-147316071D02*
X232669641Y-148530357D01*
X232741070Y-148673214D01*
X232812498Y-148744643D01*
X232955355Y-148816071D01*
X233169641Y-148816071D01*
X233312498Y-148744643D01*
X232669641Y-148244643D02*
X232812498Y-148316071D01*
X233098212Y-148316071D01*
X233241070Y-148244643D01*
X233312498Y-148173214D01*
X233383927Y-148030357D01*
X233383927Y-147601786D01*
X233312498Y-147458929D01*
X233241070Y-147387500D01*
X233098212Y-147316071D01*
X232812498Y-147316071D01*
X232669641Y-147387500D01*
X230598212Y-148316071D02*
X230741070Y-148244643D01*
X230812498Y-148173214D01*
X230883927Y-148030357D01*
X230883927Y-147601786D01*
X230812498Y-147458929D01*
X230741070Y-147387500D01*
X230598212Y-147316071D01*
X230383927Y-147316071D01*
X230241070Y-147387500D01*
X230169641Y-147458929D01*
X230098212Y-147601786D01*
X230098212Y-148030357D01*
X230169641Y-148173214D01*
X230241070Y-148244643D01*
X230383927Y-148316071D01*
X230598212Y-148316071D01*
X229455355Y-148316071D02*
X229455355Y-147316071D01*
X229455355Y-147601786D02*
X229383927Y-147458929D01*
X229312498Y-147387500D01*
X229169641Y-147316071D01*
X229026784Y-147316071D01*
X228741070Y-147316071D02*
X228169641Y-147316071D01*
X228526784Y-146816071D02*
X228526784Y-148101786D01*
X228455356Y-148244643D01*
X228312498Y-148316071D01*
X228169641Y-148316071D01*
X227669641Y-148316071D02*
X227669641Y-146816071D01*
X227026784Y-148316071D02*
X227026784Y-147530357D01*
X227098213Y-147387500D01*
X227241070Y-147316071D01*
X227455355Y-147316071D01*
X227598213Y-147387500D01*
X227669641Y-147458929D01*
X226098212Y-148316071D02*
X226241070Y-148244643D01*
X226312498Y-148173214D01*
X226383927Y-148030357D01*
X226383927Y-147601786D01*
X226312498Y-147458929D01*
X226241070Y-147387500D01*
X226098212Y-147316071D01*
X225883927Y-147316071D01*
X225741070Y-147387500D01*
X225669641Y-147458929D01*
X225598212Y-147601786D01*
X225598212Y-148030357D01*
X225669641Y-148173214D01*
X225741070Y-148244643D01*
X225883927Y-148316071D01*
X226098212Y-148316071D01*
X223812498Y-148316071D02*
X223812498Y-146816071D01*
X223669641Y-147744643D02*
X223241070Y-148316071D01*
X223241070Y-147316071D02*
X223812498Y-147887500D01*
X222026784Y-148244643D02*
X222169641Y-148316071D01*
X222455355Y-148316071D01*
X222598212Y-148244643D01*
X222669641Y-148101786D01*
X222669641Y-147530357D01*
X222598212Y-147387500D01*
X222455355Y-147316071D01*
X222169641Y-147316071D01*
X222026784Y-147387500D01*
X221955355Y-147530357D01*
X221955355Y-147673214D01*
X222669641Y-147816071D01*
X221455355Y-147316071D02*
X221098212Y-148316071D01*
X220741070Y-147316071D02*
X221098212Y-148316071D01*
X221241070Y-148673214D01*
X221312498Y-148744643D01*
X221455355Y-148816071D01*
X220169641Y-148316071D02*
X220169641Y-146816071D01*
X220169641Y-147387500D02*
X220026784Y-147316071D01*
X219741070Y-147316071D01*
X219598213Y-147387500D01*
X219526784Y-147458929D01*
X219455355Y-147601786D01*
X219455355Y-148030357D01*
X219526784Y-148173214D01*
X219598213Y-148244643D01*
X219741070Y-148316071D01*
X220026784Y-148316071D01*
X220169641Y-148244643D01*
X218598212Y-148316071D02*
X218741070Y-148244643D01*
X218812498Y-148173214D01*
X218883927Y-148030357D01*
X218883927Y-147601786D01*
X218812498Y-147458929D01*
X218741070Y-147387500D01*
X218598212Y-147316071D01*
X218383927Y-147316071D01*
X218241070Y-147387500D01*
X218169641Y-147458929D01*
X218098212Y-147601786D01*
X218098212Y-148030357D01*
X218169641Y-148173214D01*
X218241070Y-148244643D01*
X218383927Y-148316071D01*
X218598212Y-148316071D01*
X216812498Y-148316071D02*
X216812498Y-147530357D01*
X216883927Y-147387500D01*
X217026784Y-147316071D01*
X217312498Y-147316071D01*
X217455355Y-147387500D01*
X216812498Y-148244643D02*
X216955355Y-148316071D01*
X217312498Y-148316071D01*
X217455355Y-148244643D01*
X217526784Y-148101786D01*
X217526784Y-147958929D01*
X217455355Y-147816071D01*
X217312498Y-147744643D01*
X216955355Y-147744643D01*
X216812498Y-147673214D01*
X216098212Y-148316071D02*
X216098212Y-147316071D01*
X216098212Y-147601786D02*
X216026784Y-147458929D01*
X215955355Y-147387500D01*
X215812498Y-147316071D01*
X215669641Y-147316071D01*
X214526784Y-148316071D02*
X214526784Y-146816071D01*
X214526784Y-148244643D02*
X214669641Y-148316071D01*
X214955355Y-148316071D01*
X215098213Y-148244643D01*
X215169641Y-148173214D01*
X215241070Y-148030357D01*
X215241070Y-147601786D01*
X215169641Y-147458929D01*
X215098213Y-147387500D01*
X214955355Y-147316071D01*
X214669641Y-147316071D01*
X214526784Y-147387500D01*
X212669641Y-148316071D02*
X212669641Y-147316071D01*
X212669641Y-147601786D02*
X212598213Y-147458929D01*
X212526784Y-147387500D01*
X212383927Y-147316071D01*
X212241070Y-147316071D01*
X211169642Y-148244643D02*
X211312499Y-148316071D01*
X211598213Y-148316071D01*
X211741070Y-148244643D01*
X211812499Y-148101786D01*
X211812499Y-147530357D01*
X211741070Y-147387500D01*
X211598213Y-147316071D01*
X211312499Y-147316071D01*
X211169642Y-147387500D01*
X211098213Y-147530357D01*
X211098213Y-147673214D01*
X211812499Y-147816071D01*
X210598213Y-147316071D02*
X210241070Y-148316071D01*
X209883928Y-147316071D01*
X208526785Y-148316071D02*
X209383928Y-148316071D01*
X208955356Y-148316071D02*
X208955356Y-146816071D01*
X209098213Y-147030357D01*
X209241071Y-147173214D01*
X209383928Y-147244643D01*
X207883928Y-148173214D02*
X207812500Y-148244643D01*
X207883928Y-148316071D01*
X207955357Y-148244643D01*
X207883928Y-148173214D01*
X207883928Y-148316071D01*
X206883928Y-146816071D02*
X206741071Y-146816071D01*
X206598214Y-146887500D01*
X206526785Y-146958929D01*
X206455356Y-147101786D01*
X206383928Y-147387500D01*
X206383928Y-147744643D01*
X206455356Y-148030357D01*
X206526785Y-148173214D01*
X206598214Y-148244643D01*
X206741071Y-148316071D01*
X206883928Y-148316071D01*
X207026785Y-148244643D01*
X207098214Y-148173214D01*
X207169642Y-148030357D01*
X207241071Y-147744643D01*
X207241071Y-147387500D01*
X207169642Y-147101786D01*
X207098214Y-146958929D01*
X207026785Y-146887500D01*
X206883928Y-146816071D01*
X204812500Y-146816071D02*
X203955357Y-146816071D01*
X204383928Y-148316071D02*
X204383928Y-146816071D01*
X202812500Y-147316071D02*
X202812500Y-148316071D01*
X203455357Y-147316071D02*
X203455357Y-148101786D01*
X203383929Y-148244643D01*
X203241071Y-148316071D01*
X203026786Y-148316071D01*
X202883929Y-148244643D01*
X202812500Y-148173214D01*
X201526786Y-148244643D02*
X201669643Y-148316071D01*
X201955357Y-148316071D01*
X202098214Y-148244643D01*
X202169643Y-148101786D01*
X202169643Y-147530357D01*
X202098214Y-147387500D01*
X201955357Y-147316071D01*
X201669643Y-147316071D01*
X201526786Y-147387500D01*
X201455357Y-147530357D01*
X201455357Y-147673214D01*
X202169643Y-147816071D01*
X200883929Y-148244643D02*
X200741072Y-148316071D01*
X200455357Y-148316071D01*
X200312500Y-148244643D01*
X200241072Y-148101786D01*
X200241072Y-148030357D01*
X200312500Y-147887500D01*
X200455357Y-147816071D01*
X200669643Y-147816071D01*
X200812500Y-147744643D01*
X200883929Y-147601786D01*
X200883929Y-147530357D01*
X200812500Y-147387500D01*
X200669643Y-147316071D01*
X200455357Y-147316071D01*
X200312500Y-147387500D01*
X198955357Y-148316071D02*
X198955357Y-146816071D01*
X198955357Y-148244643D02*
X199098214Y-148316071D01*
X199383928Y-148316071D01*
X199526786Y-148244643D01*
X199598214Y-148173214D01*
X199669643Y-148030357D01*
X199669643Y-147601786D01*
X199598214Y-147458929D01*
X199526786Y-147387500D01*
X199383928Y-147316071D01*
X199098214Y-147316071D01*
X198955357Y-147387500D01*
X197598214Y-148316071D02*
X197598214Y-147530357D01*
X197669643Y-147387500D01*
X197812500Y-147316071D01*
X198098214Y-147316071D01*
X198241071Y-147387500D01*
X197598214Y-148244643D02*
X197741071Y-148316071D01*
X198098214Y-148316071D01*
X198241071Y-148244643D01*
X198312500Y-148101786D01*
X198312500Y-147958929D01*
X198241071Y-147816071D01*
X198098214Y-147744643D01*
X197741071Y-147744643D01*
X197598214Y-147673214D01*
X197026785Y-147316071D02*
X196669642Y-148316071D01*
X196312500Y-147316071D02*
X196669642Y-148316071D01*
X196812500Y-148673214D01*
X196883928Y-148744643D01*
X197026785Y-148816071D01*
X193955357Y-147316071D02*
X193955357Y-148316071D01*
X194312500Y-146744643D02*
X194669643Y-147816071D01*
X193741071Y-147816071D01*
X192098215Y-148244643D02*
X191883929Y-148316071D01*
X191526786Y-148316071D01*
X191383929Y-148244643D01*
X191312500Y-148173214D01*
X191241072Y-148030357D01*
X191241072Y-147887500D01*
X191312500Y-147744643D01*
X191383929Y-147673214D01*
X191526786Y-147601786D01*
X191812500Y-147530357D01*
X191955358Y-147458929D01*
X192026786Y-147387500D01*
X192098215Y-147244643D01*
X192098215Y-147101786D01*
X192026786Y-146958929D01*
X191955358Y-146887500D01*
X191812500Y-146816071D01*
X191455358Y-146816071D01*
X191241072Y-146887500D01*
X190026787Y-148244643D02*
X190169644Y-148316071D01*
X190455358Y-148316071D01*
X190598215Y-148244643D01*
X190669644Y-148101786D01*
X190669644Y-147530357D01*
X190598215Y-147387500D01*
X190455358Y-147316071D01*
X190169644Y-147316071D01*
X190026787Y-147387500D01*
X189955358Y-147530357D01*
X189955358Y-147673214D01*
X190669644Y-147816071D01*
X189312501Y-147316071D02*
X189312501Y-148816071D01*
X189312501Y-147387500D02*
X189169644Y-147316071D01*
X188883930Y-147316071D01*
X188741073Y-147387500D01*
X188669644Y-147458929D01*
X188598215Y-147601786D01*
X188598215Y-148030357D01*
X188669644Y-148173214D01*
X188741073Y-148244643D01*
X188883930Y-148316071D01*
X189169644Y-148316071D01*
X189312501Y-148244643D01*
X188169644Y-147316071D02*
X187598215Y-147316071D01*
X187955358Y-146816071D02*
X187955358Y-148101786D01*
X187883930Y-148244643D01*
X187741072Y-148316071D01*
X187598215Y-148316071D01*
X186526787Y-148244643D02*
X186669644Y-148316071D01*
X186955358Y-148316071D01*
X187098215Y-148244643D01*
X187169644Y-148101786D01*
X187169644Y-147530357D01*
X187098215Y-147387500D01*
X186955358Y-147316071D01*
X186669644Y-147316071D01*
X186526787Y-147387500D01*
X186455358Y-147530357D01*
X186455358Y-147673214D01*
X187169644Y-147816071D01*
X185812501Y-148316071D02*
X185812501Y-147316071D01*
X185812501Y-147458929D02*
X185741073Y-147387500D01*
X185598215Y-147316071D01*
X185383930Y-147316071D01*
X185241073Y-147387500D01*
X185169644Y-147530357D01*
X185169644Y-148316071D01*
X185169644Y-147530357D02*
X185098215Y-147387500D01*
X184955358Y-147316071D01*
X184741073Y-147316071D01*
X184598215Y-147387500D01*
X184526787Y-147530357D01*
X184526787Y-148316071D01*
X183812501Y-148316071D02*
X183812501Y-146816071D01*
X183812501Y-147387500D02*
X183669644Y-147316071D01*
X183383930Y-147316071D01*
X183241073Y-147387500D01*
X183169644Y-147458929D01*
X183098215Y-147601786D01*
X183098215Y-148030357D01*
X183169644Y-148173214D01*
X183241073Y-148244643D01*
X183383930Y-148316071D01*
X183669644Y-148316071D01*
X183812501Y-148244643D01*
X181883930Y-148244643D02*
X182026787Y-148316071D01*
X182312501Y-148316071D01*
X182455358Y-148244643D01*
X182526787Y-148101786D01*
X182526787Y-147530357D01*
X182455358Y-147387500D01*
X182312501Y-147316071D01*
X182026787Y-147316071D01*
X181883930Y-147387500D01*
X181812501Y-147530357D01*
X181812501Y-147673214D01*
X182526787Y-147816071D01*
X181169644Y-148316071D02*
X181169644Y-147316071D01*
X181169644Y-147601786D02*
X181098216Y-147458929D01*
X181026787Y-147387500D01*
X180883930Y-147316071D01*
X180741073Y-147316071D01*
X179169645Y-146958929D02*
X179098216Y-146887500D01*
X178955359Y-146816071D01*
X178598216Y-146816071D01*
X178455359Y-146887500D01*
X178383930Y-146958929D01*
X178312502Y-147101786D01*
X178312502Y-147244643D01*
X178383930Y-147458929D01*
X179241073Y-148316071D01*
X178312502Y-148316071D01*
X177669645Y-148316071D02*
X177669645Y-146816071D01*
X177526788Y-147744643D02*
X177098217Y-148316071D01*
X177098217Y-147316071D02*
X177669645Y-147887500D01*
X175669645Y-148316071D02*
X176526788Y-148316071D01*
X176098216Y-148316071D02*
X176098216Y-146816071D01*
X176241073Y-147030357D01*
X176383931Y-147173214D01*
X176526788Y-147244643D01*
X174812502Y-147458929D02*
X174955360Y-147387500D01*
X175026788Y-147316071D01*
X175098217Y-147173214D01*
X175098217Y-147101786D01*
X175026788Y-146958929D01*
X174955360Y-146887500D01*
X174812502Y-146816071D01*
X174526788Y-146816071D01*
X174383931Y-146887500D01*
X174312502Y-146958929D01*
X174241074Y-147101786D01*
X174241074Y-147173214D01*
X174312502Y-147316071D01*
X174383931Y-147387500D01*
X174526788Y-147458929D01*
X174812502Y-147458929D01*
X174955360Y-147530357D01*
X175026788Y-147601786D01*
X175098217Y-147744643D01*
X175098217Y-148030357D01*
X175026788Y-148173214D01*
X174955360Y-148244643D01*
X174812502Y-148316071D01*
X174526788Y-148316071D01*
X174383931Y-148244643D01*
X174312502Y-148173214D01*
X174241074Y-148030357D01*
X174241074Y-147744643D01*
X174312502Y-147601786D01*
X174383931Y-147530357D01*
X174526788Y-147458929D01*
D12*
X40308000Y-73420000D02*
X39858000Y-73870000D01*
X36908000Y-73420000D02*
X37358000Y-73870000D01*
X36908000Y-68820000D02*
X37358000Y-68370000D01*
X40308000Y-68820000D02*
X39858000Y-68370000D01*
X35858000Y-70120000D02*
X35858000Y-72120000D01*
X39858000Y-73870000D02*
X37358000Y-73870000D01*
X41358000Y-70120000D02*
X41358000Y-72120000D01*
X39858000Y-68370000D02*
X37358000Y-68370000D01*
D13*
X67151200Y-34290000D02*
X84931200Y-34290000D01*
X84931200Y-34290000D02*
X84931200Y-64770000D01*
X84931200Y-64770000D02*
X67151200Y-64770000D01*
X67151200Y-64770000D02*
X67151200Y-34290000D01*
X82391200Y-34290000D02*
X82391200Y-36830000D01*
X82391200Y-36830000D02*
X84931200Y-36830000D01*
D14*
X39941333Y-67774762D02*
X39798476Y-67822381D01*
X39560380Y-67822381D01*
X39465142Y-67774762D01*
X39417523Y-67727143D01*
X39369904Y-67631905D01*
X39369904Y-67536667D01*
X39417523Y-67441429D01*
X39465142Y-67393810D01*
X39560380Y-67346190D01*
X39750857Y-67298571D01*
X39846095Y-67250952D01*
X39893714Y-67203333D01*
X39941333Y-67108095D01*
X39941333Y-67012857D01*
X39893714Y-66917619D01*
X39846095Y-66870000D01*
X39750857Y-66822381D01*
X39512761Y-66822381D01*
X39369904Y-66870000D01*
X39036571Y-66822381D02*
X38798476Y-67822381D01*
X38607999Y-67108095D01*
X38417523Y-67822381D01*
X38179428Y-66822381D01*
X37274666Y-67822381D02*
X37846095Y-67822381D01*
X37560381Y-67822381D02*
X37560381Y-66822381D01*
X37655619Y-66965238D01*
X37750857Y-67060476D01*
X37846095Y-67108095D01*
D15*
X76970724Y-48368857D02*
X77998819Y-48368857D01*
X78119771Y-48441429D01*
X78180248Y-48514000D01*
X78240724Y-48659143D01*
X78240724Y-48949429D01*
X78180248Y-49094571D01*
X78119771Y-49167143D01*
X77998819Y-49239714D01*
X76970724Y-49239714D01*
X78240724Y-50763714D02*
X78240724Y-49892857D01*
X78240724Y-50328285D02*
X76970724Y-50328285D01*
X77152152Y-50183142D01*
X77273105Y-50038000D01*
X77333581Y-49892857D01*
M02*
