M48
;DRILL file {KiCad 4.0.7} date 09/04/18 16:32:26
;FORMAT={-:-/ absolute / inch / decimal}
FMAT,2
INCH,TZ
T1C0.067
T2C0.087
T3C0.120
T4C0.157
%
G90
G05
M72
T1
X1.2875Y-1.6813
X1.2875Y-2.4313
X1.2875Y-3.1813
X1.2875Y-3.9313
X1.2875Y-4.6813
X1.2875Y-5.4313
X1.6875Y-1.6813
X1.6875Y-2.4313
X1.6875Y-3.1813
X1.6875Y-3.9313
X1.6875Y-4.6813
X1.6875Y-5.4313
X2.0375Y-1.6813
X2.0375Y-2.4313
X2.0375Y-3.1813
X2.0375Y-3.9313
X2.0375Y-4.6813
X2.0375Y-5.4313
X2.4375Y-1.6813
X2.4375Y-2.4313
X2.4375Y-3.1813
X2.4375Y-3.9313
X2.4375Y-4.6813
X2.4375Y-5.4313
X2.7875Y-1.6813
X2.7875Y-2.4313
X2.7875Y-3.1813
X2.7875Y-3.9313
X2.7875Y-4.6813
X2.7875Y-5.4313
X3.1875Y-1.6813
X3.1875Y-2.4313
X3.1875Y-3.1813
X3.1875Y-3.9313
X3.1875Y-4.6813
X3.1875Y-5.4313
X3.5375Y-1.6813
X3.5375Y-2.4313
X3.5375Y-3.1813
X3.5375Y-3.9313
X3.5375Y-4.6813
X3.5375Y-5.4313
X3.9375Y-1.6813
X3.9375Y-2.4313
X3.9375Y-3.1813
X3.9375Y-3.9313
X3.9375Y-4.6813
X3.9375Y-5.4313
X4.2875Y-1.6813
X4.2875Y-2.4313
X4.2875Y-3.1813
X4.2875Y-3.9313
X4.2875Y-4.6813
X4.2875Y-5.4313
X4.6875Y-1.6813
X4.6875Y-2.4313
X4.6875Y-3.1813
X4.6875Y-3.9313
X4.6875Y-4.6813
X4.6875Y-5.4313
X5.0375Y-1.6813
X5.0375Y-2.4313
X5.0375Y-3.1813
X5.0375Y-3.9313
X5.0375Y-4.6813
X5.0375Y-5.4313
X5.4125Y-5.4313
X5.4375Y-1.6813
X5.4375Y-2.4313
X5.4375Y-3.1813
X5.4375Y-3.9313
X5.4375Y-4.6813
X5.4375Y-5.4313
X5.7875Y-1.6813
X5.7875Y-2.4313
X5.7875Y-3.1813
X5.7875Y-3.9313
X5.7875Y-4.6813
X5.7875Y-5.4313
X5.8125Y-5.4313
X6.1875Y-1.6813
X6.1875Y-2.4313
X6.1875Y-3.1813
X6.1875Y-3.9313
X6.1875Y-4.6813
X6.1875Y-5.4313
X6.5375Y-1.6813
X6.5375Y-2.4313
X6.5375Y-3.1813
X6.5375Y-3.9313
X6.5375Y-4.6813
X6.5375Y-5.4313
X6.9375Y-1.6813
X6.9375Y-2.4313
X6.9375Y-3.1813
X6.9375Y-3.9313
X6.9375Y-4.6813
X6.9375Y-5.4313
X7.2875Y-1.6813
X7.2875Y-2.4313
X7.2875Y-3.1813
X7.2875Y-3.9313
X7.2875Y-4.6813
X7.2875Y-5.4313
X7.6875Y-1.6813
X7.6875Y-2.4313
X7.6875Y-3.1813
X7.6875Y-3.9313
X7.6875Y-4.6813
X7.6875Y-5.4313
X8.0375Y-1.6813
X8.0375Y-2.4313
X8.0375Y-3.1813
X8.0375Y-3.9313
X8.0375Y-4.6813
X8.0375Y-5.4313
X8.4375Y-1.6813
X8.4375Y-2.4313
X8.4375Y-3.1813
X8.4375Y-3.9313
X8.4375Y-4.6813
X8.4375Y-5.4313
X8.7875Y-1.6813
X8.7875Y-2.4313
X8.7875Y-3.1813
X8.7875Y-3.9313
X8.7875Y-4.6813
X8.7875Y-5.4313
X9.1875Y-1.6813
X9.1875Y-2.4313
X9.1875Y-3.1813
X9.1875Y-3.9313
X9.1875Y-4.6813
X9.1875Y-5.4313
X9.5375Y-1.6813
X9.5375Y-2.4313
X9.5375Y-3.1813
X9.5375Y-3.9313
X9.5375Y-4.6813
X9.5375Y-5.4313
X9.9375Y-1.6813
X9.9375Y-2.4313
X9.9375Y-3.1813
X9.9375Y-3.9313
X9.9375Y-4.6813
X9.9375Y-5.4313
T2
X1.86Y-3.56
X3.36Y-5.06
X4.11Y-5.8
X5.61Y-3.56
X7.11Y-5.8
X7.86Y-2.06
X7.86Y-5.06
X9.36Y-3.56
T3
X5.144Y-5.1557
X6.081Y-5.1557
T4
X1.4875Y-1.6813
X1.4875Y-2.4313
X1.4875Y-3.1813
X1.4875Y-3.9313
X1.4875Y-4.6813
X1.4875Y-5.4313
X2.2375Y-1.6813
X2.2375Y-2.4313
X2.2375Y-3.1813
X2.2375Y-3.9313
X2.2375Y-4.6813
X2.2375Y-5.4313
X2.9875Y-1.6813
X2.9875Y-2.4313
X2.9875Y-3.1813
X2.9875Y-3.9313
X2.9875Y-4.6813
X2.9875Y-5.4313
X3.7375Y-1.6813
X3.7375Y-2.4313
X3.7375Y-3.1813
X3.7375Y-3.9313
X3.7375Y-4.6813
X3.7375Y-5.4313
X4.4875Y-1.6813
X4.4875Y-2.4313
X4.4875Y-3.1813
X4.4875Y-3.9313
X4.4875Y-4.6813
X4.4875Y-5.4313
X5.144Y-5.7557
X5.2375Y-1.6813
X5.2375Y-2.4313
X5.2375Y-3.1813
X5.2375Y-3.9313
X5.2375Y-4.6813
X5.2375Y-5.4313
X5.6125Y-5.4313
X5.9875Y-1.6813
X5.9875Y-2.4313
X5.9875Y-3.1813
X5.9875Y-3.9313
X5.9875Y-4.6813
X5.9875Y-5.4313
X6.081Y-5.7557
X6.7375Y-1.6813
X6.7375Y-2.4313
X6.7375Y-3.1813
X6.7375Y-3.9313
X6.7375Y-4.6813
X6.7375Y-5.4313
X7.4875Y-1.6813
X7.4875Y-2.4313
X7.4875Y-3.1813
X7.4875Y-3.9313
X7.4875Y-4.6813
X7.4875Y-5.4313
X8.2375Y-1.6813
X8.2375Y-2.4313
X8.2375Y-3.1813
X8.2375Y-3.9313
X8.2375Y-4.6813
X8.2375Y-5.4313
X8.9875Y-1.6813
X8.9875Y-2.4313
X8.9875Y-3.1813
X8.9875Y-3.9313
X8.9875Y-4.6813
X8.9875Y-5.4313
X9.7375Y-1.6813
X9.7375Y-2.4313
X9.7375Y-3.1813
X9.7375Y-3.9313
X9.7375Y-4.6813
X9.7375Y-5.4313
T0
M30
