M48
;DRILL file {KiCad 4.0.7} date 09/04/18 16:32:26
;FORMAT={-:-/ absolute / inch / decimal}
FMAT,2
INCH,TZ
T1C0.016
T2C0.028
T3C0.043
T4C0.059
%
G90
G05
M72
T1
X1.461Y-2.8981
X1.7Y-2.87
X2.09Y-1.76
X2.09Y-1.98
X2.09Y-2.53
X2.09Y-2.73
X2.56Y-2.74
X2.65Y-2.86
X2.79Y-2.25
X3.4574Y-2.7807
X3.8216Y-2.5153
X5.324Y-2.0764
T2
X1.8687Y-1.609
X1.8687Y-1.916
X1.8687Y-2.359
X1.8687Y-2.666
X1.8687Y-3.109
X1.8687Y-3.416
X1.8687Y-3.859
X1.8687Y-4.1661
X1.8687Y-4.609
X1.8687Y-4.9161
X1.8687Y-5.359
X1.8687Y-5.6661
X2.0902Y-2.0437
X2.0902Y-2.7937
X2.3973Y-2.0437
X2.3973Y-2.7937
X2.6187Y-3.109
X2.6187Y-3.416
X2.6187Y-3.859
X2.6187Y-4.1661
X2.6187Y-4.609
X2.6187Y-4.9161
X2.6187Y-5.359
X2.6187Y-5.6661
X2.8402Y-2.0437
X2.8402Y-2.7937
X3.1473Y-2.0437
X3.1473Y-2.7937
X3.3687Y-3.109
X3.3687Y-3.416
X3.3687Y-3.859
X3.3687Y-4.1661
X3.3687Y-4.609
X3.3687Y-4.9161
X3.3687Y-5.359
X3.3687Y-5.6661
X4.1187Y-1.609
X4.1187Y-1.916
X4.1187Y-2.359
X4.1187Y-2.666
X4.1187Y-3.109
X4.1187Y-3.416
X4.1187Y-3.859
X4.1187Y-4.1661
X4.1187Y-4.609
X4.1187Y-4.9161
X4.1187Y-5.359
X4.1187Y-5.6661
X4.8687Y-1.609
X4.8687Y-1.916
X4.8687Y-2.359
X4.8687Y-2.666
X4.8687Y-3.109
X4.8687Y-3.416
X4.8687Y-3.859
X4.8687Y-4.1661
X4.8687Y-4.609
X4.8687Y-4.9161
X4.8687Y-5.359
X4.8687Y-5.6661
X5.3715Y-5.7937
X5.6187Y-1.609
X5.6187Y-1.916
X5.6187Y-2.359
X5.6187Y-2.666
X5.6187Y-3.109
X5.6187Y-3.416
X5.6187Y-3.859
X5.6187Y-4.1661
X5.6187Y-4.609
X5.6187Y-4.9161
X5.6785Y-5.7937
X6.3687Y-1.609
X6.3687Y-1.916
X6.3687Y-2.359
X6.3687Y-2.666
X6.3687Y-3.109
X6.3687Y-3.416
X6.3687Y-3.859
X6.3687Y-4.1661
X6.3687Y-4.609
X6.3687Y-4.9161
X6.3687Y-5.359
X6.3687Y-5.6661
X7.1187Y-1.609
X7.1187Y-1.916
X7.1187Y-2.359
X7.1187Y-2.666
X7.1187Y-3.109
X7.1187Y-3.416
X7.1187Y-3.859
X7.1187Y-4.1661
X7.1187Y-4.609
X7.1187Y-4.9161
X7.1187Y-5.359
X7.1187Y-5.6661
X7.8687Y-1.609
X7.8687Y-1.916
X7.8687Y-2.359
X7.8687Y-2.666
X7.8687Y-3.109
X7.8687Y-3.416
X7.8687Y-3.859
X7.8687Y-4.1661
X7.8687Y-4.609
X7.8687Y-4.9161
X7.8687Y-5.359
X7.8687Y-5.6661
X8.6187Y-1.609
X8.6187Y-1.916
X8.6187Y-2.359
X8.6187Y-2.666
X8.6187Y-3.109
X8.6187Y-3.416
X8.6187Y-3.859
X8.6187Y-4.1661
X8.6187Y-4.609
X8.6187Y-4.9161
X8.6187Y-5.359
X8.6187Y-5.6661
X9.3687Y-1.609
X9.3687Y-1.916
X9.3687Y-2.359
X9.3687Y-2.666
X9.3687Y-3.109
X9.3687Y-3.416
X9.3687Y-3.859
X9.3687Y-4.1661
X9.3687Y-4.609
X9.3687Y-4.9161
X9.3687Y-5.359
X9.3687Y-5.6661
X10.1187Y-1.609
X10.1187Y-1.916
X10.1187Y-2.359
X10.1187Y-2.666
X10.1187Y-3.109
X10.1187Y-3.416
X10.1187Y-3.859
X10.1187Y-4.1661
X10.1187Y-4.609
X10.1187Y-4.9161
X10.1187Y-5.359
X10.1187Y-5.6661
T3
X2.6937Y-1.4
X2.6937Y-1.5
X2.6937Y-1.6
X2.6937Y-1.7
X2.6937Y-1.8
X2.6937Y-1.9
X2.6937Y-2.
X2.6937Y-2.1
X2.6937Y-2.2
X2.6937Y-2.3
X2.6937Y-2.4
X2.6937Y-2.5
X2.7937Y-1.8
X2.7937Y-2.5
X2.8937Y-2.5
X2.9937Y-2.5
X3.0937Y-2.5
X3.1937Y-1.8
X3.1937Y-2.5
X3.2937Y-1.4
X3.2937Y-1.5
X3.2937Y-1.6
X3.2937Y-1.7
X3.2937Y-1.8
X3.2937Y-1.9
X3.2937Y-2.
X3.2937Y-2.1
X3.2937Y-2.2
X3.2937Y-2.3
X3.2937Y-2.4
X3.2937Y-2.5
T4
X1.3375Y-1.5813
X1.3375Y-2.3313
X1.3375Y-3.0813
X1.3375Y-3.8313
X1.3375Y-4.5813
X1.3375Y-5.3313
X1.5875Y-1.4813
X1.5875Y-2.2313
X1.5875Y-2.9813
X1.5875Y-3.7313
X1.5875Y-4.4813
X1.5875Y-5.2313
X2.0875Y-1.5813
X2.0875Y-2.3313
X2.0875Y-3.0813
X2.0875Y-3.8313
X2.0875Y-4.5813
X2.0875Y-5.3313
X2.3375Y-1.4813
X2.3375Y-2.2313
X2.3375Y-2.9813
X2.3375Y-3.7313
X2.3375Y-4.4813
X2.3375Y-5.2313
X2.8375Y-1.5813
X2.8375Y-2.3313
X2.8375Y-3.0813
X2.8375Y-3.8313
X2.8375Y-4.5813
X2.8375Y-5.3313
X3.0875Y-1.4813
X3.0875Y-2.2313
X3.0875Y-2.9813
X3.0875Y-3.7313
X3.0875Y-4.4813
X3.0875Y-5.2313
X3.5875Y-1.5813
X3.5875Y-2.3313
X3.5875Y-3.0813
X3.5875Y-3.8313
X3.5875Y-4.5813
X3.5875Y-5.3313
X3.8375Y-1.4813
X3.8375Y-2.2313
X3.8375Y-2.9813
X3.8375Y-3.7313
X3.8375Y-4.4813
X3.8375Y-5.2313
X4.3375Y-1.5813
X4.3375Y-2.3313
X4.3375Y-3.0813
X4.3375Y-3.8313
X4.3375Y-4.5813
X4.3375Y-5.3313
X4.5875Y-1.4813
X4.5875Y-2.2313
X4.5875Y-2.9813
X4.5875Y-3.7313
X4.5875Y-4.4813
X4.5875Y-5.2313
X5.0875Y-1.5813
X5.0875Y-2.3313
X5.0875Y-3.0813
X5.0875Y-3.8313
X5.0875Y-4.5813
X5.0875Y-5.3313
X5.3375Y-1.4813
X5.3375Y-2.2313
X5.3375Y-2.9813
X5.3375Y-3.7313
X5.3375Y-4.4813
X5.3375Y-5.2313
X5.4625Y-5.3313
X5.7125Y-5.2313
X5.8375Y-1.5813
X5.8375Y-2.3313
X5.8375Y-3.0813
X5.8375Y-3.8313
X5.8375Y-4.5813
X5.8375Y-5.3313
X6.0875Y-1.4813
X6.0875Y-2.2313
X6.0875Y-2.9813
X6.0875Y-3.7313
X6.0875Y-4.4813
X6.0875Y-5.2313
X6.5875Y-1.5813
X6.5875Y-2.3313
X6.5875Y-3.0813
X6.5875Y-3.8313
X6.5875Y-4.5813
X6.5875Y-5.3313
X6.8375Y-1.4813
X6.8375Y-2.2313
X6.8375Y-2.9813
X6.8375Y-3.7313
X6.8375Y-4.4813
X6.8375Y-5.2313
X7.3375Y-1.5813
X7.3375Y-2.3313
X7.3375Y-3.0813
X7.3375Y-3.8313
X7.3375Y-4.5813
X7.3375Y-5.3313
X7.5875Y-1.4813
X7.5875Y-2.2313
X7.5875Y-2.9813
X7.5875Y-3.7313
X7.5875Y-4.4813
X7.5875Y-5.2313
X8.0875Y-1.5813
X8.0875Y-2.3313
X8.0875Y-3.0813
X8.0875Y-3.8313
X8.0875Y-4.5813
X8.0875Y-5.3313
X8.3375Y-1.4813
X8.3375Y-2.2313
X8.3375Y-2.9813
X8.3375Y-3.7313
X8.3375Y-4.4813
X8.3375Y-5.2313
X8.8375Y-1.5813
X8.8375Y-2.3313
X8.8375Y-3.0813
X8.8375Y-3.8313
X8.8375Y-4.5813
X8.8375Y-5.3313
X9.0875Y-1.4813
X9.0875Y-2.2313
X9.0875Y-2.9813
X9.0875Y-3.7313
X9.0875Y-4.4813
X9.0875Y-5.2313
X9.5875Y-1.5813
X9.5875Y-2.3313
X9.5875Y-3.0813
X9.5875Y-3.8313
X9.5875Y-4.5813
X9.5875Y-5.3313
X9.8375Y-1.4813
X9.8375Y-2.2313
X9.8375Y-2.9813
X9.8375Y-3.7313
X9.8375Y-4.4813
X9.8375Y-5.2313
T0
M30
